<svg xmlns="http://www.w3.org/2000/svg" xmlns:xlink="http://www.w3.org/1999/xlink" width="250.559" height="296.73" xmlns:v="https://vecta.io/nano"><style><![CDATA[.B{fill:#4bbdab}.C{fill-rule:evenodd}.D{fill:#fff}.E{stroke-miterlimit:2.613}.F{clip-rule:evenodd}.G{stroke-width:3.896}]]></style><defs><clipPath id="A"><path d="M-9-9h614v860H-9z" class="F"/></clipPath><clipPath id="B"><path d="M201.315 422.92c4.275-7.443 9.385-14.334 15.197-20.553l-2.967-3.623-1.32-1.61 1.473-1.474.164-.164h.008c47.199-46.892 120.337-46.892 167.535 0h.009l.164.164 1.473 1.474-1.32 1.61-2.967 3.623a111.33 111.33 0 0 1 15.197 20.553l-21.545 12.264c11.203 15.21 17.827 33.894 17.827 53.96 0 25.651-10.385 48.875-27.136 65.691-35.939 36.08-94.999 36.08-130.938 0-16.751-16.816-27.136-40.04-27.136-65.691 0-20.066 6.624-38.75 17.827-53.96z" class="F"/></clipPath><path id="C" d="M266.828 486.31s3.187 1.063 4.603.354"/><path id="D" d="M266.828 481.706s3.187 1.062 4.603.354"/><path id="E" d="M266.828 466.478s3.187 1.416 4.603.354"/><path id="F" d="M266.828 457.626s3.187 1.062 4.603.353"/></defs><g clip-path="url(#A)" transform="matrix(1.333333 0 0 -1.333333 -5.601941 1094.104374)"><path d="M6.736 662.425a106.14 106.14 0 0 1 14.397-19.611l-2.812-3.458-1.25-1.536 1.394-1.406.156-.156h.008c44.713-44.744 113.997-44.744 158.71 0h.008l.156.156 1.394 1.406-1.25 1.536-2.812 3.458c5.506 5.933 10.347 12.51 14.397 19.611l-20.41 11.702c10.613 14.513 16.887 32.342 16.887 51.489 0 24.477-9.838 46.636-25.706 62.682-34.047 34.427-89.995 34.427-124.042 0-15.868-16.046-25.707-38.205-25.707-62.682 0-19.147 6.275-36.975 16.888-51.489z" fill="#51b5a2" class="C"/><g clip-path="url(#B)" transform="matrix(.947323 0 0 .954199 -183.97439 258.87562)"><path d="M217.248 397.193c46.261-43.379 114.519-43.379 160.78 0l-19.098 23.213c-35.516-31.247-87.068-31.247-122.585 0z" class="C D"/><g class="B"><path d="M303.21 385.792l.355.03c17.303 1.41 34.645 7.666 50.801 18.821l1.824-.823-1.745-1.206 4.724-7.274-2.241.02-.903 1.571c-.113-.273-.263-.548-.433-.821a5.49 5.49 0 0 0-.569-.756c-.198-.229-.404-.407-.6-.541-.361-.232-.774-.374-1.221-.42-.453-.042-.93 0-1.426.134a5.61 5.61 0 0 0-1.488.65 7.09 7.09 0 0 0-1.419 1.145 4.82 4.82 0 0 1 .351.366c.136.159.269.328.407.509s.269.348.379.507.193.289.249.383a1.06 1.06 0 0 1 .091.229c.021.087.034.173.031.252a.35.35 0 0 1-.05.202c-.043.066-.112.15-.207.24a3.15 3.15 0 0 1-.335.278 2.29 2.29 0 0 1-.264.16c-1.484-.906-2.981-1.773-4.481-2.595l4.166-7.852-2.228.216-1.006 2.095-2.78-1.479.417-.781c.062-.121.072-.239.029-.345s-.138-.203-.278-.276c-.099-.05-.261-.058-.489-.036s-.49.08-.773.158c-.294.078-.58.18-.862.292a5.83 5.83 0 0 0-.745.364c-.212.136-.355.264-.423.388-.054.097-.064.21-.029.324s.121.213.26.29l.502.268-1.75 3.303a113.32 113.32 0 0 0-4.297-1.932l3.093-8.518-2.198.521-2.52 7.325-2.381-.929 1.697-4.673c.102-.288.135-.52.087-.696-.043-.17-.167-.298-.369-.372-.051-.014-.159-.012-.332.018a5.53 5.53 0 0 0-.625.128 8.33 8.33 0 0 0-.772.226c-.273.091-.527.192-.778.306-.241.113-.455.238-.63.366a1.01 1.01 0 0 0-.346.41c-.017.063-.017.132.014.218a.76.76 0 0 0 .131.252c.058.076.13.131.211.164l.98.357-.966 2.672a104.28 104.28 0 0 0-5.688-1.847l.699-2.72c.036-.144.033-.267-.004-.359s-.108-.156-.206-.179l-3.246-.81c-.303-.075-.549-.207-.742-.396a1.36 1.36 0 0 1-.394-.707c-.067-.289-.053-.611.034-.976.086-.327.216-.595.397-.804a1.84 1.84 0 0 1 .593-.468 1.92 1.92 0 0 1 .658-.189c.217-.025.408-.012.576.03a1.88 1.88 0 0 1 .604.27c.169.115.301.235.39.359s.127.221.113.295c-.024.083-.07.157-.132.217a2.17 2.17 0 0 0-.208.236c-.071.095-.13.229-.18.41-.019.075-.007.155.026.244a.68.68 0 0 0 .177.246c.083.078.185.131.305.165.107.022.257.02.451-.015s.405-.091.636-.171a5.07 5.07 0 0 0 .672-.292 2.72 2.72 0 0 0 .557-.375c.154-.137.25-.279.291-.426a.97.97 0 0 0-.05-.602 1.84 1.84 0 0 0-.402-.585l.671-.68.234.095c.141.057.342.13.6.206.328.103.625.17.891.201a2.71 2.71 0 0 0 .777-.025c.246-.044.506-.125.781-.245l1.754-.75 1.34-.587a16.76 16.76 0 0 0 1.055-.524l-.401-.781-.577.334-.633.342a32.16 32.16 0 0 1-.76.386c-.28.144-.545.26-.801.354a2.63 2.63 0 0 1-.762.158 2.32 2.32 0 0 1-.823-.108c-.251-.08-.469-.168-.661-.263l-.549-.287.007-.007-.768-.657-2.022 2.334c-.039-.054-.156-.133-.351-.241-.195-.1-.466-.201-.813-.293-.428-.107-.871-.143-1.32-.112a4.6 4.6 0 0 0-1.32.285c-.431.163-.824.387-1.195.677a4.35 4.35 0 0 0-.96 1.05 4.67 4.67 0 0 0-.614 1.413c-.172.707-.097 1.275.224 1.707s.866.741 1.633.93l2.542.63-.419 1.597c-2.455-.676-4.913-1.254-7.376-1.733l.959-9.284-1.986 1.039-.189 2.713c-.193-.131-.384-.234-.564-.309-.184-.069-.369-.128-.558-.164a7.8 7.8 0 0 0-.618-.087c-.229-.023-.454.009-.676.082a2.92 2.92 0 0 0-.64.309 8.99 8.99 0 0 0-.587.399c-.112-.229-.238-.44-.382-.625a6.16 6.16 0 0 0-.432-.507c-.143-.151-.275-.283-.392-.399a15.16 15.16 0 0 1 .895-.942 29.54 29.54 0 0 1 .941-.853l1.061-.909-.689-.786-3.697 3.925a7.97 7.97 0 0 0-.432.522c-.153.207-.288.413-.407.63s-.193.419-.216.598c-.011.124.018.245.086.354a.85.85 0 0 0 .258.279.7.7 0 0 0 .329.129c.107.009.212-.011.322-.056a2.41 2.41 0 0 0 .32-.163c.104-.062.198-.121.283-.166s.154-.072.21-.07c.03.005.053.028.065.073a.46.46 0 0 1 .008.174l-.3 2.985-1.967-.213-1.004-.095zm49.729 15.82l-2.481-1.587.757-.531a16 16 0 0 0 .776-.592c.214-.177.355-.317.425-.421s.093-.218.067-.353-.102-.306-.244-.513-.365-.462-.655-.775c-.197-.206-.316-.398-.361-.566a.62.62 0 0 1 .102-.518c.143-.228.343-.358.601-.387s.587.084.979.334c.155.107.329.271.521.494a7.4 7.4 0 0 1 .564.774 8.18 8.18 0 0 1 .502.894c.15.307.262.583.333.845zm-9.492-5.621c-.918-.491-1.842-.962-2.766-1.419l1.737-3.278 2.746 1.461zm-30.874-10.74a96.24 96.24 0 0 0-3.444-.544l.361-3.56c.191-.036.369-.062.529-.075a3.98 3.98 0 0 1 .462-.005 9.63 9.63 0 0 1 .476.037 2.1 2.1 0 0 1 .315.072c.138.044.294.095.469.161.175.058.347.127.513.196.171.075.31.143.432.212s.192.124.224.178zm-30.357 1.3c5.156-.782 10.369-1.124 15.587-1.022l.954-1.693c-.797-.025-1.593-.036-2.389-.039l-.154-8.788-1.865 1.272.264 7.525c-.989.014-1.973.042-2.961.09l-.621-8.847-1.779 1.366.262 2.31-3.14.218-.065-.882c-.009-.136-.065-.242-.157-.308a.58.58 0 0 0-.381-.088c-.114.01-.253.09-.436.231s-.371.324-.572.543a7.12 7.12 0 0 0-.573.704c-.182.249-.328.482-.439.704s-.164.409-.155.554c.007.109.056.209.148.288s.214.117.372.108l.569-.037.261 3.688-2.068.269zm7.628-2.553a100.28 100.28 0 0 0-3.099.253l-.257-3.659 3.102-.215zm-43.83 16l.565-.345c8.802-5.351 18.056-9.19 27.542-11.506a24.98 24.98 0 0 1-.729 1.544c-.312.604-.59 1.079-.821 1.421a1.62 1.62 0 0 1-.38.417c-.149.115-.314.191-.506.233a3.48 3.48 0 0 1-.608.065c-.206.003-.392 0-.551-.021l-.272.881-.149.527c-.03.127-.05.227-.053.297a.64.64 0 0 0 .011.184.3.3 0 0 0 .223.231c.117.034.262.045.422.033.163-.018.325-.044.48-.08a2.03 2.03 0 0 0 .406-.126c.154-.062.323-.165.505-.308a3.21 3.21 0 0 0 .559-.603c.24-.328.493-.754.757-1.278s.533-1.114.804-1.778a39.94 39.94 0 0 0 .674-1.821l1.902-.426.613-1.881-2.326.499-1.825-8.607-1.59 1.606 1.708 7.407c-1.21.3-2.413.626-3.612.972l-2.542-8.32-1.427 1.732 1.388 4.205-1.9.583c-.413.121-.758.148-1.032.076a1.18 1.18 0 0 1-.674-.433c-.169-.215-.304-.486-.398-.813-.084-.285-.118-.616-.084-.993a6.07 6.07 0 0 1 .227-1.229c.121-.441.284-.894.486-1.364l-.855-.314-.655 2.072c-.169.583-.297 1.09-.381 1.523-.081.427-.12.807-.113 1.138a3.29 3.29 0 0 0 .14.924 1.88 1.88 0 0 0 .371.668c.178.199.402.362.667.488.273.122.59.195.95.208s.767-.051 1.215-.182l2.481-.759.401 1.311c-2.834.881-5.643 1.899-8.424 3.051l-3.743-8.028-1.171 1.911 1.235 2.42c-.231-.012-.447-.001-.64.027s-.382.08-.564.147a8.15 8.15 0 0 0-.575.242 1.64 1.64 0 0 0-.535.42c-.149.18-.28.377-.391.596a12.99 12.99 0 0 0-.3.641c-.211-.137-.427-.253-.645-.337s-.433-.156-.634-.213l-.54-.141c.079-.445.174-.868.282-1.267a26.18 26.18 0 0 1 .366-1.214l.443-1.327-.997-.319-1.146 5.269c-.038.187-.071.413-.101.668a5.79 5.79 0 0 0-.028.752c.012.247.051.457.125.622a.59.59 0 0 0 .256.26.86.86 0 0 0 .364.106c.125.007.246-.01.349-.057a.75.75 0 0 0 .247-.213 2.36 2.36 0 0 0 .19-.309 8.21 8.21 0 0 1 .155-.288c.051-.083.101-.139.148-.165.027-.014.058-.003.093.028a.41.41 0 0 1 .096.143l1.201 2.579c-1.554.778-3.097 1.598-4.629 2.466l-5.046-7.491-.855 2.073 1.653 2.278a1.32 1.32 0 0 0-.33.131 2.63 2.63 0 0 0-.311.185c-.05.034-.12.109-.218.222s-.205.247-.317.403a6 6 0 0 0-.314.456c-.095.15-.163.28-.2.387l-.057-.011c-.037-.193-.094-.379-.172-.557a2.97 2.97 0 0 0-.264-.476c-.188-.276-.422-.497-.703-.659a2.4 2.4 0 0 0-.938-.307 2.93 2.93 0 0 0-1.065.085c-.369.093-.739.263-1.104.506a3.01 3.01 0 0 0-.87.937c-.239.394-.426.843-.564 1.353s-.213 1.061-.241 1.65a9.91 9.91 0 0 0 .1 1.821l.829-.038c-.136-.999-.116-1.844.062-2.522s.499-1.177.958-1.488c.332-.221.669-.36 1.011-.419s.654-.04.946.057a1.33 1.33 0 0 1 .691.522c.15.226.262.464.342.715s.123.477.124.679c-.202.01-.438.039-.7.081s-.532.107-.81.183a7.45 7.45 0 0 0-.773.255c-.026.168-.046.354-.062.551a17.68 17.68 0 0 0-.035.581c-.005.181-.006.341-.002.471s.023.213.039.244.071.053.154.055.218-.039.394-.12c.571-.268 1.08-.441 1.526-.512s.825-.061 1.135.038a1.33 1.33 0 0 1 .72.523c.143.218.183.411.118.587s-.2.323-.408.46c-.086.059-.224.132-.413.216s-.407.176-.668.268-.547.188-.859.276a11.49 11.49 0 0 1-.974.232l.202 1.954c.197-.042.416-.096.666-.17.243-.069.494-.145.742-.232a13.37 13.37 0 0 0 .676-.253c.203-.084.36-.164.469-.238a2.78 2.78 0 0 0 .734-.747c.21-.308.382-.643.514-1.013s.222-.741.269-1.116a3.87 3.87 0 0 0-.007-1.066c-.046-.337-.152-.62-.309-.856a1.4 1.4 0 0 0-.329-.353c-.13-.102-.29-.181-.481-.236a2.56 2.56 0 0 0-.687-.085 3.08 3.08 0 0 1 .204-.608c.089-.191.195-.36.31-.507s.229-.266.35-.348c.183-.117.378-.21.601-.278a2.69 2.69 0 0 1 .657-.132 1.72 1.72 0 0 1 .576.039c.167.042.298.117.367.219l1.378 2.053-1.117.662zm11.924-8.183c-1.061.463-2.116.946-3.169 1.448l-1.411-3.027c.145-.133.285-.245.414-.338a3.51 3.51 0 0 1 .394-.242c.132-.074.275-.143.429-.215.058-.027.164-.06.305-.099a6.12 6.12 0 0 1 .487-.106 6.44 6.44 0 0 1 .541-.093c.184-.026.339-.04.478-.042s.228.009.283.037z"/></g><path d="M360.353 552.097c-16.069 16.131-38.265 26.109-62.715 26.109s-46.646-9.978-62.714-26.109c-16.048-16.11-25.995-38.363-25.995-62.953 0-24.115 9.993-46.152 26.106-62.137 16.061-15.935 38.209-25.867 62.603-25.867s46.543 9.932 62.604 25.867c16.112 15.985 26.106 38.022 26.106 62.137 0 24.59-9.948 46.843-25.995 62.953" class="D"/><g class="C E"><path d="M297.639 546.867c31.518 0 57.369-25.853 57.369-57.723 0-30.811-25.851-56.661-57.369-56.661s-57.369 25.851-57.369 56.661c0 31.871 25.851 57.723 57.369 57.723z" stroke="#4bbdab" class="B G"/><g stroke="#fff" class="D"><path d="M293.39 481.352l-36.121 13.459 14.519 3.54-20.895 8.143 21.249-3.187-10.625 7.083 14.166-1.062-14.521 15.583 16.643-11.332-6.018 11.332 12.039-7.434-6.374 20.891 10.268-18.059-.707 12.39 7.438-11.329 3.542 20.891 1.416-19.831 4.602 11.332 1.774-13.454 12.039 17.348-7.083-18.768 9.208 8.145-4.251-12.748 18.415 10.625-14.521-13.812 12.041 3.187-9.563-9.561 22.313 1.769-20.186-6.372 15.581-2.125-10.977-4.958h0zm-32.936 13.104l32.936-12.043 35.058 11.688 7.436 3.185-14.163 2.125v.709l15.579 4.603-16.288-1.418-.709 1.065 8.499 8.499-10.977-3.543-.707 1.062 12.392 10.981-14.519-8.499-.709.354 3.898 11.332-8.499-7.79-.711.709 6.021 15.223-9.205-13.81h-.709l-1.418 11.686-3.894-10.623-1.063.356-1.062 16.288-2.127-16.644h-1.06l-6.376 9.914.709-11.686h-.709l-8.143 14.168 4.958-15.939-.709-.353-9.916 6.021 5.667-9.917-.709-.709-13.457 9.563 11.332-12.041-.353-1.06-11.686 1.415 9.559-6.725-.353-.711-16.288 2.48 15.579-5.667v-1.063z" stroke-width="1.234"/><path d="M310.033 502.247c0-5.669-5.669-10.625-12.395-10.625s-12.394 4.252-12.394 9.917c0 4.251 24.789 3.185 24.789.707z" class="G"/></g></g><g transform="matrix(0 -.78398 1.70431 0 297.638994 507.200565)" class="B C E"><path d="M0 0c0 3.739 2.708 7.065 5.869 7.065S11.743 3.739 11.743 0c0-3.947-2.71-7.065-5.874-7.065S0-3.947 0 0z" stroke="#fff" stroke-width="2.286"/></g><g class="C D"><path d="M297.377 501.538c7.083 0 1.772 14.872 0 14.872-2.124 0-5.665-14.519 0-14.872z" stroke="#4bbdab" stroke-width="1.704" class="E"/><path d="M294.805 489.849l5.666.356-1.062-44.266c-1.771 1.061-2.126.708-3.897-.355z"/></g><path d="M263.994 488.788c9.917 3.896 19.832 3.188 29.749 0v-40.372c-9.917 3.187-19.832 2.833-29.749 0z" class="B C"/><path d="M263.288 490.911c4.956 1.773 10.268 2.836 15.583 2.481 4.956 0 10.269-.708 15.225-2.481l1.417-.353v-1.77-43.204l-2.48 1.063c-4.602 1.417-9.56 2.126-14.162 2.126-4.959 0-9.563-1.064-14.521-2.126l-2.477-.71v2.48 40.371 1.417zm15.583-1.414a42.28 42.28 0 0 1-13.104-2.125v-36.476c4.25 1.062 8.498 1.771 13.104 1.771 4.248 0 8.499-.355 12.748-1.418v36.123c-4.249 1.416-8.5 2.125-12.748 2.125" class="C D"/><path d="M301.533 488.788c9.916 3.896 19.831 3.188 29.748 0v-40.372c-9.917 3.187-19.832 2.833-29.748 0z" class="B C"/><path d="M300.825 490.911c5.312 1.773 10.271 2.836 15.581 2.481 5.315 0 10.272-.708 15.583-2.481l1.415-.353v-1.77-40.371-2.833l-2.831 1.063c-4.604 1.417-9.561 2.126-14.167 2.126s-9.56-1.064-14.162-2.126l-2.834-.71v42.851 1.417zm15.581-1.414c-4.249 0-8.499-.709-12.748-2.125v-36.476c4.249 1.062 8.499 1.771 12.748 1.771s8.501-.355 12.75-1.418v36.123c-4.249 1.416-8.499 2.125-12.75 2.125" class="C D"/><g stroke="#fff" fill="none" stroke-width=".709" class="E"><use xlink:href="#C"/><path d="M273.204 486.31s3.187 1.063 4.602.354m1.772-.354s3.187 1.063 4.603.354m1.772-.354s3.187 1.063 4.603.354m-23.728-2.833s3.187 1.063 4.603.354"/><path d="M273.204 483.831s3.187 1.063 4.602.354m1.772-.354s3.187 1.063 4.603.354m1.772-.354s3.187 1.063 4.603.354"/><use xlink:href="#D"/><path d="M273.204 481.706s3.187 1.062 4.602.354m1.772-.354s3.187 1.062 4.603.354m1.772-.354s3.187 1.062 4.603.354m-23.728-2.479s3.187 1.062 4.603.354"/><path d="M273.204 479.581s3.187 1.062 4.602.354m1.772-.354s3.187 1.062 4.603.354m1.772-.354s3.187 1.062 4.603.354m-23.728-2.834s3.187 1.063 4.603.354"/><path d="M273.204 477.101s3.187 1.063 4.602.354m1.772-.354s3.187 1.063 4.603.354m1.772-.354s3.187 1.063 4.603.354m-23.728-2.477s3.187 1.063 4.603.354"/><path d="M273.204 474.978s3.187 1.063 4.602.354m1.772-.354s3.187 1.063 4.603.354m1.772-.354s3.187 1.063 4.603.354m-23.728-2.124s3.187.706 4.603 0"/><path d="M273.204 473.208s3.187.706 4.602 0m1.772 0s3.187.706 4.603 0m1.772 0s3.187.706 4.603 0m-23.728-2.126s3.187 1.063 4.603.354"/><path d="M273.204 471.082s3.187 1.063 4.602.354m1.772-.354s3.187 1.063 4.603.354m1.772-.354s3.187 1.063 4.603.354m-23.728-2.478s3.187 1.063 4.603.353"/><path d="M273.204 468.958s3.187 1.063 4.602.353m1.772-.353s3.187 1.063 4.603.353m1.772-.353s3.187 1.063 4.603.353"/><use xlink:href="#E"/><path d="M273.204 466.478s3.187 1.416 4.602.354m1.772-.354s3.187 1.416 4.603.354m1.772-.354s3.187 1.416 4.603.354m-23.728-2.477s3.187 1.062 4.603.354"/><path d="M273.204 464.355s3.187 1.062 4.602.354m1.772-.354s3.187 1.062 4.603.354m1.772-.354s3.187 1.062 4.603.354m-23.728-2.481s3.187 1.062 4.603.356"/><path d="M273.204 462.228s3.187 1.062 4.602.356m1.772-.356s3.187 1.062 4.603.356m1.772-.356s3.187 1.062 4.603.356m-23.728-2.834s3.187 1.416 4.603.354"/><path d="M273.204 459.75s3.187 1.416 4.602.354m1.772-.354s3.187 1.416 4.603.354m1.772-.354s3.187 1.416 4.603.354"/><use xlink:href="#F"/><path d="M273.204 457.626s3.187 1.062 4.602.353m1.772-.353s3.187 1.062 4.603.353m1.772-.353s3.187 1.062 4.603.353m-23.728-2.478s3.187 1.062 4.603.353"/><path d="M273.204 455.501s3.187 1.062 4.602.353m1.772-.353s3.187 1.062 4.603.353m1.772-.353s3.187 1.062 4.603.353m-23.728-2.833s3.187 1.416 4.603.354"/><path d="M273.204 453.021s3.187 1.416 4.602.354m1.772-.354s3.187 1.416 4.603.354m1.772-.354s3.187 1.416 4.603.354m14.166 32.935s3.185 1.063 4.603.354m1.771-.354s3.187 1.063 4.249.354m2.125-.354s3.187 1.063 4.251.354m1.769-.354s3.187 1.063 4.603.354"/><path d="M304.722 483.831s3.185 1.063 4.603.354m1.771-.354s3.187 1.063 4.249.354m2.125-.354s3.187 1.063 4.251.354m1.769-.354s3.187 1.063 4.603.354m-23.371-2.479s3.185 1.062 4.603.354"/><path d="M311.096 481.706s3.187 1.062 4.249.354m2.125-.354s3.187 1.062 4.251.354m1.769-.354s3.187 1.062 4.603.354m-23.371-2.479s3.185 1.062 4.603.354"/><path d="M311.096 479.581s3.187 1.062 4.249.354m2.125-.354s3.187 1.062 4.251.354m1.769-.354s3.187 1.062 4.603.354m-23.371-2.834s3.185 1.063 4.603.354"/><path d="M311.096 477.101s3.187 1.063 4.249.354m2.125-.354s3.187 1.063 4.251.354m1.769-.354s3.187 1.063 4.603.354m-23.371-2.477s3.185 1.063 4.603.354"/><path d="M311.096 474.978s3.187 1.063 4.249.354m2.125-.354s3.187 1.063 4.251.354m1.769-.354s3.187 1.063 4.603.354m-23.371-2.124s3.185.706 4.603 0"/><path d="M311.096 473.208s3.187.706 4.249 0m2.125 0s3.187.706 4.251 0m1.769 0s3.187.706 4.603 0m-23.371-2.126s3.185 1.063 4.603.354"/><path d="M311.096 471.082s3.187 1.063 4.249.354m2.125-.354s3.187 1.063 4.251.354m1.769-.354s3.187 1.063 4.603.354m-23.371-2.478s3.185 1.063 4.603.353"/><path d="M311.096 468.958s3.187 1.063 4.249.353m2.125-.353s3.187 1.063 4.251.353m1.769-.353s3.187 1.063 4.603.353m-23.371-2.833s3.185 1.416 4.603.354"/><path d="M311.096 466.478s3.187 1.416 4.249.354m2.125-.354s3.187 1.416 4.251.354m1.769-.354s3.187 1.416 4.603.354m-23.371-2.477s3.185 1.062 4.603.354"/><path d="M311.096 464.355s3.187 1.062 4.249.354m2.125-.354s3.187 1.062 4.251.354m1.769-.354s3.187 1.062 4.603.354m-23.371-2.481s3.185 1.062 4.603.356"/><path d="M311.096 462.228s3.187 1.062 4.249.356m2.125-.356s3.187 1.062 4.251.356m1.769-.356s3.187 1.062 4.603.356m-23.371-2.834s3.185 1.416 4.603.354"/><path d="M311.096 459.75s3.187 1.416 4.249.354m2.125-.354s3.187 1.416 4.251.354m1.769-.354s3.187 1.416 4.603.354m-23.371-2.478s3.185 1.062 4.603.353"/><path d="M311.096 457.626s3.187 1.062 4.249.353m2.125-.353s3.187 1.062 4.251.353m1.769-.353s3.187 1.062 4.603.353m-23.371-2.478s3.185 1.062 4.603.353"/><path d="M311.096 455.501s3.187 1.062 4.249.353m2.125-.353s3.187 1.062 4.251.353m1.769-.353s3.187 1.062 4.603.353m-23.371-2.833s3.185 1.416 4.603.354"/><path d="M311.096 453.021s3.187 1.416 4.249.354m2.125-.354s3.187 1.416 4.251.354m1.769-.354s3.187 1.416 4.603.354"/></g><g class="B C"><path d="M236.159 454.97c2.124 0 3.542-1.495 3.542-3.367s-1.418-3.364-3.542-3.364c-1.769 0-3.188 1.496-3.188 3.364s1.419 3.367 3.188 3.367m122.961 0c1.77 0 3.186-1.495 3.186-3.367s-1.416-3.364-3.186-3.364c-2.123 0-3.539 1.496-3.539 3.364s1.416 3.367 3.539 3.367"/></g><path d="M368.146 506.353l-2.799-2.639c-.148.209-.282.437-.395.68a3.59 3.59 0 0 0-.253.71c-.093.424-.104.784-.035 1.079.078.294.211.532.409.709s.436.293.722.361a2.03 2.03 0 0 0 .799-.006c.296-.054.581-.156.857-.305.275-.158.509-.348.695-.589zm-141.161-20.985c.117-.119.269-.306.459-.559l.608-.844.622-.954.485-.879c.133-.268.202-.469.217-.617.009-.16-.035-.309-.132-.461a1.25 1.25 0 0 0-.443-.376c-.194-.102-.432-.165-.709-.189a2.14 2.14 0 0 0-.862.128 2.53 2.53 0 0 0-.786.448c-.236.195-.431.422-.582.683a2 2 0 0 0-.26.834c-.017.258.024.552.126.879s.252.661.464.995a4.2 4.2 0 0 0 .793.912zm-7.444 7.304l-1.988-1.123-2.041-1.334c-.593-.431-1.068-.825-1.43-1.186-.279-.288-.493-.562-.635-.808s-.231-.48-.281-.684-.072-.378-.076-.525c-.017-.203-.012-.406-.004-.608.016-.2.053-.376.122-.513a.38.38 0 0 1 .329-.233c.069-.004.147 0 .231.021a2.76 2.76 0 0 1 .356.125l.621.289 1.033.507c-.056.193-.097.421-.134.677s-.045.511-.037.76a1.52 1.52 0 0 0 .185.671c.115.204.26.391.444.553.375.354.909.786 1.596 1.292l1.668 1.147-.036-2.487a76.31 76.31 0 0 1 .751-10.677l.496-3.048 1.981 1.47a60.85 60.85 0 0 0-.291 1.881 73.35 73.35 0 0 0-.606 6.142l3.943.275.002-.049c-.368-.223-.671-.431-.909-.617-.242-.192-.435-.369-.58-.537a2.58 2.58 0 0 1-.344-.481 2.07 2.07 0 0 1-.195-.56c-.053-.22-.088-.449-.11-.679-.016-.237-.021-.447-.007-.63.04-.551.168-1.049.379-1.48s.475-.799.813-1.091a3.19 3.19 0 0 1 1.124-.655 3.21 3.21 0 0 1 1.297-.17c.37.032.739.146 1.098.348a4.4 4.4 0 0 1 1.018.79 5.93 5.93 0 0 1 .836 1.094 5.67 5.67 0 0 1 .54 1.246c.122.432.169.856.146 1.261-.022.269-.1.558-.229.873a5.62 5.62 0 0 1-.483.907c-.195.292-.39.542-.598.741l2.173-.018 1.376 2.488-4.979-.348a3.56 3.56 0 0 0-.452.436 9.74 9.74 0 0 0-.539.653 10.43 10.43 0 0 0-.521.746c-.163.25-.297.483-.405.697-.1.213-.156.391-.169.527-.009.126.017.246.082.363s.151.212.26.294.232.123.364.132c.165.01.402-.025.708-.101.312-.073.658-.182 1.041-.315l1.169-.451a21.3 21.3 0 0 0 1.098-.502l1.379 2.164a6 6 0 0 1-.946.44c-.349.132-.715.247-1.091.341s-.737.159-1.081.206c-.345.04-.641.057-.897.04-.573-.045-1.105-.177-1.591-.391a4.43 4.43 0 0 1-1.255-.827c-.355-.34-.626-.705-.811-1.108s-.265-.807-.239-1.226c.009-.153.056-.335.129-.545a5.86 5.86 0 0 1 .284-.658c.113-.227.242-.44.37-.637a2.65 2.65 0 0 1 .39-.469l-3.678-.256-.029 1.971a76.55 76.55 0 0 0 2.885 20.874l2.139-.603-.845-3.161c-.261-.952-.254-1.734.021-2.347.075-.164.174-.318.289-.455l-.58-6.538a.56.56 0 0 1 .078-.327.8.8 0 0 1 .235-.254c.095-.066.191-.107.291-.114.202-.014.449.03.74.137s.596.242.912.418a8.26 8.26 0 0 1 .894.574c.283.209.506.397.688.582.175.191.277.347.291.474.024.245-.011.438-.091.577-.088.138-.224.216-.404.233l-.883.077c-.158.016-.272.069-.339.162a.44.44 0 0 0-.087.318l.244 2.74c.458-.08.897-.105 1.332-.071.601.042 1.17.17 1.7.389a5.56 5.56 0 0 1 1.444.861c.43.356.803.761 1.112 1.216l1.294-4.293 1.866 1.358-2.291 5.045c.053.303.076.552.068.741s-.021.317-.05.374l3.778.795-.252 1.237-3.686-1.022c-.094.324-.227.587-.395.798a1.21 1.21 0 0 1-.627.418c-.185.045-.399.026-.644-.062s-.486-.213-.746-.382-.497-.354-.726-.556a5.41 5.41 0 0 1-.575-.591c-.154-.194-.251-.353-.287-.49-.036-.15-.041-.29-.005-.429.03-.138.087-.249.162-.34a.52.52 0 0 1 .251-.179c.226-.056.413-.073.56-.052l.378.087c.107.028.214.034.32.01.09-.029.175-.128.255-.301s.135-.387.158-.645.002-.536-.071-.824c-.055-.207-.16-.427-.317-.647s-.357-.426-.609-.606c-.245-.176-.539-.297-.874-.363s-.707-.052-1.112.052c-.452.123-.816.307-1.09.556-.27.241-.447.527-.538.856s-.079.679.021 1.056l1.083 4.038c.032.123.006.232-.072.332s-.216.175-.39.225l-3.412.944 1.427 4.129.003-.001 8.781-3.735 2.322 1.61-10.283 4.156h-.024l.039.088a74.41 74.41 0 0 0 2.942 6.296c.256.026.637.074.801.051.201-.03.382-.071.535-.122s.28-.099.367-.149c.066-.04.123-.102.168-.195s.086-.192.111-.301.032-.209.027-.306l-.057-.567-.136-.779a15.09 15.09 0 0 0-.164-.798l-.181-.611c.762-.261 1.505-.414 2.227-.468a7.17 7.17 0 0 1 2.031.121c.628.134 1.178.354 1.658.658a3.47 3.47 0 0 1 1.123 1.163 3.99 3.99 0 0 1 .366.944 7.11 7.11 0 0 1 .197 1.163 6.68 6.68 0 0 1 .017 1.162l1.9-1.237 2.511 1.25-9.65 5.554 1.41 2.067.005.009-2.694-.019-.004-.007c-2.97-4.38-5.508-9.083-7.552-14.039l-.299-.729c-1.169.317-2.193.438-3.077.355-.923-.086-1.689-.343-2.295-.779a3.79 3.79 0 0 1-1.328-1.701c-.212-.545-.3-1.08-.256-1.597.046-.525.191-.979.449-1.377s.596-.681 1.018-.857a2.12 2.12 0 0 1 .651-.138c.236-.017.484-.009.726.025.25.036.478.098.694.18l.358 1.287c-.164.037-.306.084-.422.121l-.325.127c-.284.12-.515.292-.684.525a1.61 1.61 0 0 0-.316.798c-.037.302.009.611.136.937.18.431.483.772.92 1.023s.962.396 1.568.419c.565.023 1.167-.078 1.81-.295-2.996-7.768-4.803-16.126-5.177-24.854zm13.597 36.551l3.983-2.301c.069-.328.104-.704.109-1.128a10.85 10.85 0 0 0-.053-1.281c-.043-.428-.106-.825-.19-1.182s-.185-.641-.298-.846c-.296-.503-.597-.811-.902-.928a.99.99 0 0 0-.889.089c-.22.125-.357.302-.407.518s-.021.496.079.834c.146.517.243.93.288 1.238s.04.546-.015.712a.56.56 0 0 1-.278.353c-.136.074-.373.15-.709.228-.344.072-.743.147-1.199.216a34.71 34.71 0 0 1-1.414.197zm26.531 26.042a78.6 78.6 0 0 1-2.437-1.479l5.974-9.539-2.823.062-4.991 8.278a77.04 77.04 0 0 1-4.117-2.978l7.38-7.912-2.766-.459-1.888 2.206-2.879-2.685.757-.807c.113-.128.163-.266.145-.409s-.101-.291-.246-.423c-.104-.095-.299-.155-.583-.201a5.91 5.91 0 0 0-.981-.06c-.376.001-.757.03-1.135.073a6.87 6.87 0 0 0-1.019.203c-.296.091-.511.2-.637.327-.095.102-.142.234-.136.384s.076.293.217.433l.52.485-3.133 3.306-.954-.942-.602-.61-.107-.109-2.406.672.278.297 1.271 1.305a78.6 78.6 0 0 0 15.007 11.791zm51.017 3.78c-.147-.081-.367-.173-.663-.288-.287-.117-.612-.235-.98-.354-.359-.12-.723-.232-1.089-.334-.357-.098-.685-.176-.975-.223-.294-.053-.51-.064-.653-.038a.75.75 0 0 0-.408.254c-.112.137-.192.313-.242.529-.042.216-.039.461.014.736.066.283.185.552.363.79a2.58 2.58 0 0 0 .643.633 2.56 2.56 0 0 0 .82.372c.291.071.582.076.874.019.254-.054.525-.175.812-.363a4.04 4.04 0 0 0 .826-.719c.262-.294.481-.634.658-1.014zm1.042 5.12l-.808-3.888-.046.007c-.114.415-.227.766-.344 1.046a3.78 3.78 0 0 1-.355.703c-.119.186-.241.341-.364.464s-.283.232-.486.342a5.06 5.06 0 0 1-.624.292 4.53 4.53 0 0 1-.603.184c-.542.108-1.055.128-1.528.043s-.897-.24-1.271-.484c-.376-.236-.693-.536-.941-.897a3.2 3.2 0 0 1-.521-1.202 2.65 2.65 0 0 1 .033-1.152 4.33 4.33 0 0 1 .479-1.194 5.73 5.73 0 0 1 .822-1.106c.318-.335.672-.623 1.047-.862.383-.236.777-.4 1.175-.488.261-.052.561-.059.901-.022a5.36 5.36 0 0 1 1.006.214c.332.107.625.228.875.371l-.614-2.081 2.009-2.012 1.037 4.887c.13.091.312.199.547.312a9.88 9.88 0 0 0 .776.338c.284.108.572.208.858.296a7.22 7.22 0 0 0 .784.193c.235.039.417.044.553.022.123-.026.23-.087.326-.182s.16-.204.211-.33c.042-.127.054-.255.025-.389-.033-.158-.133-.376-.289-.652s-.358-.58-.591-.911a19.39 19.39 0 0 0-.758-1.001c-.269-.329-.53-.64-.788-.917l1.705-1.921a6 6 0 0 1 .684.786 9.89 9.89 0 0 1 .625.956 10.45 10.45 0 0 1 .498.982c.134.32.23.602.287.854.116.561.133 1.107.061 1.633a4.43 4.43 0 0 1-.448 1.436c-.222.431-.506.797-.843 1.085s-.704.476-1.112.569c-.146.031-.334.037-.559.027-.224-.016-.462-.046-.711-.094a6.71 6.71 0 0 1-.711-.179c-.227-.074-.411-.156-.561-.245l.767 3.715c2.496-.551 4.952-1.223 7.351-2.013l-1.052 2.652c-7.163 2.176-14.752 3.344-22.604 3.344-4.456 0-8.83-.377-13.086-1.101a3.1 3.1 0 0 0-.089.307c-.028.128-.049.255-.069.376-.092.52-.085.991.025 1.414a2.09 2.09 0 0 0 .653 1.058c.321.282.759.473 1.307.574.577.095 1.199.082 1.867-.042a9.54 9.54 0 0 0 2.013-.619 13.2 13.2 0 0 0 1.958-1.007l.318.879c-.323.239-.722.489-1.189.747-.467.264-.968.521-1.517.768a17.06 17.06 0 0 1-1.669.64c-.566.182-1.113.319-1.639.395s-1.004.081-1.431.01c-.68-.12-1.253-.342-1.722-.658s-.804-.708-1.006-1.176c-.209-.476-.261-1.004-.16-1.598.152-.838.58-1.637 1.137-2.283-5.405-1.008-10.62-2.573-15.577-4.639-.734-.304-1.46-.621-2.183-.947l-.308-.14 1.899-1.57.701.305.738.311a75.05 75.05 0 0 0 2.132.85c.193-.137.482-.355.605-.481.142-.147.259-.29.348-.425.095-.137.159-.25.197-.346.028-.071.032-.157.011-.257a1.33 1.33 0 0 0-.097-.303 1.08 1.08 0 0 0-.168-.259 7.78 7.78 0 0 0-.394-.411c-.174-.168-.372-.344-.584-.532l-.622-.528c-.203-.155-.378-.278-.52-.368.215-.33.443-.64.682-.924-.157-.464-.341-.917-.563-1.354a10.38 10.38 0 0 0-.766-1.31c-.277-.404-.565-.752-.861-1.046a3.46 3.46 0 0 0-.875-.665c-.465-.235-.847-.383-1.145-.438s-.528-.046-.693.026c-.167.066-.282.173-.349.319-.068.124-.093.287-.078.481.021.196.11.418.266.663s.409.515.752.796c.35.283.816.578 1.403.879a8.47 8.47 0 0 0 .56.255l.503.204-1.955 1.295c-.058-.029-.136-.059-.252-.099-.11-.037-.231-.083-.37-.135a4.16 4.16 0 0 1-.411-.18 5.15 5.15 0 0 0-.513-.225 3.84 3.84 0 0 0-.463-.136c-.152-.02-.282-.02-.388.006s-.18.077-.219.156c.506.261.907.561 1.2.899s.474.688.541 1.048a1.63 1.63 0 0 1-.145 1.044c-.18.345-.409.613-.691.804a2.31 2.31 0 0 1-.913.386c-.328.062-.655.071-.981.018a2.79 2.79 0 0 1-.899-.277c-.514-.267-.904-.598-1.179-.991-.268-.394-.423-.809-.456-1.253a2.41 2.41 0 0 1 .253-1.276 2.3 2.3 0 0 1 .851-.88c.379-.231.807-.382 1.28-.455s.946-.052 1.421.054l.021-.043c-.42-.37-.726-.732-.916-1.076s-.285-.674-.281-.988a1.98 1.98 0 0 1 .234-.914c.139-.267.352-.519.631-.752a4.04 4.04 0 0 1 .993-.593 5.13 5.13 0 0 1 1.22-.357 4.89 4.89 0 0 1 1.313-.024 3.76 3.76 0 0 1 1.274.384c.425.219.824.52 1.195.897s.708.796.993 1.25c.224.356.768 1.448 1.077 2.123a6.32 6.32 0 0 1 .84-.49c.578-.278 1.148-.446 1.714-.502.566-.049 1.1.026 1.6.224.276.114.569.287.869.517a6.86 6.86 0 0 1 .869.795 6.42 6.42 0 0 1 .733.905l.735-2.141 2.746-.562-3.998 9.898c1.82.49 3.67.914 5.544 1.271l1.471-9.337 2.594-1.117-1.907 10.832a76.43 76.43 0 0 0 5.547.68l.316-4.61-.714-.036c-.194-.013-.345-.08-.444-.193s-.148-.24-.142-.379c.015-.182.107-.402.28-.664.172-.256.386-.525.648-.808.261-.275.534-.54.823-.786a6.12 6.12 0 0 1 .792-.585c.245-.147.434-.225.574-.219a.71.71 0 0 1 .459.165c.107.097.156.236.151.407l-.057 1.105 3.929.206.03-2.904 2.413-1.427-.576 10.974a75.8 75.8 0 0 0 12.071-1.29zm-14.335 1.276l.24-4.568-3.879-.203-.242 4.568zm-21.655-3.186l1.657-4.104c-.149-.299-.351-.618-.611-.956-.25-.335-.525-.663-.83-.976-.297-.311-.588-.584-.877-.815s-.539-.391-.756-.482c-.54-.213-.966-.27-1.278-.177a.99.99 0 0 0-.65.618c-.094.238-.097.456 0 .658s.289.406.576.608c.433.317.765.585.991.8.227.22.365.408.425.568s.061.307-.002.452-.201.347-.423.615a19.53 19.53 0 0 1-.809.911c-.312.337-.644.681-.992 1.023l1.344.544 2.235.713zm-12.818-6.549a.85.85 0 0 0-.302.227c-.097.107-.184.243-.261.397-.125.249-.176.495-.147.73a1.26 1.26 0 0 0 .228.621 1.22 1.22 0 0 0 .454.411c.196.101.391.145.594.141.196-.004.383-.053.552-.15a1.02 1.02 0 0 0 .396-.418 1.07 1.07 0 0 0 .117-.632c-.027-.21-.108-.411-.249-.595-.142-.193-.328-.352-.57-.484a2.93 2.93 0 0 0-.377-.162c-.129-.042-.273-.073-.435-.086zm-13.416-7.512l-1.61-1.365-1.3-1.21 3.118-3.346 2.845 2.648zm102.805-6.059l-.97.993-1.073 1.055-7.635-8.189-.67 2.743 6.704 6.95a75.62 75.62 0 0 1-3.416 2.933c.049-.457.049-.882.004-1.28s-.13-.749-.248-1.057c-.109-.311-.25-.569-.408-.773-.339-.426-.758-.794-1.267-1.108a6.67 6.67 0 0 0-1.706-.736c-.629-.177-1.304-.28-2.013-.311-.713-.025-1.439.033-2.181.172l-.206-3.898-1.173.137c.011.153.03.354.058.61l.091.822.104.861.089.708c.022.195.042.318.051.376.028.177.02.338-.041.477-.054.142-.155.268-.31.39a2.24 2.24 0 0 0-.24.223c-.1.097-.2.212-.31.341-.103.128-.194.256-.277.382-.081.133-.134.247-.157.352-.021.119-.005.297.053.514s.163.481.325.777a7.63 7.63 0 0 0 .639.971c.111.139.251.227.418.274a1.06 1.06 0 0 0 .52.017c.183-.036.344-.106.494-.219.114-.092.184-.255.204-.5s-.012-.572-.095-.993c-.021-.126-.021-.233.005-.323.017-.095.054-.16.113-.207.135-.098.338-.167.613-.2a5.01 5.01 0 0 1 .987-.016c.381.03.797.094 1.243.182-.482.796-.85 1.486-1.109 2.067s-.426 1.092-.498 1.513-.072.789.002 1.095.21.579.406.817c.093.119.212.24.365.361a2.29 2.29 0 0 0 .533.322c.164.071.342.127.533.159a76.27 76.27 0 0 1-4.951 3.17l-5.368-9.682-1.313 2.498 4.778 8.262v.005l-.532.289-1.324.694-.01 2.479.695-.347c.816-.414 1.622-.843 2.425-1.287-.006.358.031.729.102 1.115.083.448.232.877.452 1.281.295.524.668.901 1.127 1.141a2.71 2.71 0 0 0 1.525.278c.562-.05 1.146-.237 1.753-.572.374-.212.747-.516 1.104-.907a10.32 10.32 0 0 0 1.026-1.338c.324-.499.623-1.014.895-1.548s.499-1.054.697-1.552.351-.938.451-1.328l-.801-.484a13.01 13.01 0 0 1-.885 2.015c-.345.653-.739 1.234-1.175 1.751-.442.513-.915.918-1.427 1.205-.489.267-.949.394-1.373.378-.433-.021-.823-.154-1.176-.411s-.656-.625-.911-1.085c-.059-.107-.122-.22-.18-.337l-.1-.224a78.87 78.87 0 0 0 16.463-12.614zm1.046-6.122a2.39 2.39 0 0 0 .02.817c.058.272.16.53.305.77a2.39 2.39 0 0 0 .561.635c.201.153.452.241.747.265.303.029.604-.021.911-.141s.576-.32.806-.605c.193-.247.269-.511.235-.792s-.199-.543-.499-.786c-.249-.195-.537-.338-.868-.425a2.96 2.96 0 0 0-1.068-.075c-.376.041-.761.149-1.15.337zm12.936-14.136a82.76 82.76 0 0 1-1.326 2.669l-9.91-5.292.259 2.814 8.606 4.409c-.783 1.396-1.607 2.767-2.471 4.105l-9.165-6.42-.086 2.824 8.033 5.426-.182.266-.856 1.208 1.025 2.333.291-.394a78.56 78.56 0 0 0 7.158-11.727zm-10.735 7.378l2.214 1.488c-.396.106-.933.263-1.308.45s-.725.397-1.052.63c-.331.238-.625.468-.885.712s-.473.468-.637.679a2.82 2.82 0 0 0-.208.312c-.063.105-.104.188-.128.235.657-.234 1.26-.318 1.805-.256s1.011.243 1.402.547c.378.307.68.705.906 1.193.229.496.37 1.028.434 1.6a5.42 5.42 0 0 1-.096 1.68c-.123.549-.341 1.028-.656 1.446a2.73 2.73 0 0 1-.872.721c-.333.167-.684.27-1.057.301a3 3 0 0 1-1.095-.102c-.359-.099-.691-.268-.989-.495s-.531-.512-.682-.843-.24-.753-.278-1.269c-.028-.512-.016-1.162.039-1.946-.613.311-1.137.545-1.574.699s-.809.241-1.121.258a1.88 1.88 0 0 1-.826-.106 2.51 2.51 0 0 1-.7-.402 2.57 2.57 0 0 1-.719-.955c-.183-.395-.308-.834-.38-1.315a6.74 6.74 0 0 1-.057-1.457 5.86 5.86 0 0 1 .242-1.375c.13-.422.304-.782.526-1.073.149-.189.307-.365.473-.527.172-.162.331-.304.488-.421s.281-.198.381-.25l-1.938-3.79 1.149-.476 1.584 3.889a1.73 1.73 0 0 1 .547-.099c.205-.01.414.014.631.068s.417.159.608.303c.101.084.18.228.229.423a2.94 2.94 0 0 1 .078.676c.002.255-.015.508-.043.766-.035.256-.079.485-.137.686s-.121.354-.2.454c-.085.105-.198.184-.348.241s-.293.082-.44.082a.59.59 0 0 1-.356-.097c-.077-.063-.149-.171-.22-.316s-.129-.285-.191-.418c-.058-.139-.115-.234-.167-.279-.072-.061-.193-.097-.353-.111-.159-.008-.344.037-.558.14s-.434.3-.66.583c-.156.208-.243.448-.259.728-.01.275.05.557.188.84.133.289.346.548.638.782.23.189.501.302.81.339s.694-.008 1.166-.147 1.081-.385 1.812-.727c.016-.701.083-1.29.204-1.786s.282-.875.489-1.14c.306-.387.66-.731 1.055-1.036.389-.304.703-.524 1.092-.737zm-11.525 20.33l-1.082.827c-.252.029-.507-.021-.768-.138s-.506-.326-.739-.613c-.22-.281-.368-.617-.453-1.005s-.084-.816-.017-1.277a4.94 4.94 0 0 1 .453-1.419c.173.046.359.121.55.236a5.1 5.1 0 0 1 .567.384c.18.144.349.294.5.441a4.75 4.75 0 0 1 .372.41c.343.448.557.846.641 1.201s.08.663-.009.912zm29.108-68.682l-1.304.091.247 3.532c.03.488-.023.899-.159 1.235s-.343.589-.616.77a1.92 1.92 0 0 1-.961.308c-.288.018-.612-.034-.976-.155s-.74-.299-1.117-.525a6.99 6.99 0 0 1-1.068-.766c-.328-.285-.594-.586-.805-.901s-.33-.624-.354-.924a4.35 4.35 0 0 1 .035-.783c.032-.295.076-.605.127-.919l.137-.877c.035-.277.048-.499.037-.676-.016-.202-.072-.345-.158-.426s-.166-.121-.247-.112c-.186.012-.381.101-.591.261s-.411.382-.598.665-.333.62-.441 1.01a3.92 3.92 0 0 0-.117 1.294c.057.859.346 1.709.871 2.553s1.315 1.684 2.367 2.52l-.627.884c-.86-.719-1.58-1.384-2.165-1.996s-1.051-1.198-1.402-1.761a6.96 6.96 0 0 1-.788-1.718c-.172-.574-.281-1.191-.322-1.842-.03-.461.027-.901.167-1.312s.334-.777.596-1.1a3.22 3.22 0 0 1 .895-.773 2.52 2.52 0 0 1 1.052-.333c.175-.016.345-.002.517.03.166.033.37.106.607.212a13.1 13.1 0 0 1 .923.478c.433.229.754.427.972.606s.368.36.447.552.128.414.141.679a5.26 5.26 0 0 1-.013.612l-.083.913-.096.984-.087.828c-.02.229-.03.372-.026.434.017.108.061.207.129.307a.77.77 0 0 0 .262.225.64.64 0 0 0 .344.082c.403-.035.706-.186.9-.455s.282-.624.252-1.057l-.288-4.12c-.009-.128.036-.23.132-.312s.242-.135.425-.146l2.559-.177c-.195-1.379-.429-2.746-.699-4.097l2.463 1.172.148.857c.193.052.395.096.599.135.317.059.622.1.916.131a9.1 9.1 0 0 0 .805.042c.237 0 .423-.02.556-.048.41-.095.687-.253.846-.478s.189-.521.104-.879c-.053-.247-.215-.433-.495-.546-.274-.113-.694-.167-1.257-.158l.065-.927c.86-.082 1.552-.061 2.085.069.529.123.929.326 1.202.596.269.276.442.585.515.931.092.422.08.834-.034 1.229a2.32 2.32 0 0 1-.63 1.03c-.3.292-.682.497-1.148.609-.243.052-.541.062-.892.034a9.05 9.05 0 0 1-1.119-.18c-.395-.085-.784-.189-1.166-.303a13.43 13.43 0 0 1-.787-.262l.114.777c.495 3.51.752 7.078.752 10.677a81.28 81.28 0 0 1-.098 3.932 44.57 44.57 0 0 1 2.013 1.327 27.68 27.68 0 0 1 1.941 1.475c.563.469 1.007.896 1.342 1.281.262.307.453.595.578.853a2.54 2.54 0 0 1 .232.698c.033.206.047.384.04.53 0 .202-.016.406-.039.607s-.079.372-.154.506-.195.204-.346.206a.78.78 0 0 1-.229-.035c-.088-.028-.2-.078-.346-.153a23.24 23.24 0 0 1-.602-.328l-.993-.579a4.62 4.62 0 0 0 .179-.667 4.08 4.08 0 0 0 .09-.755c.004-.246-.044-.471-.137-.681-.101-.212-.23-.407-.404-.585-.35-.377-.85-.845-1.504-1.397a30.35 30.35 0 0 0-1.713-1.357c-.381 6.212-1.484 12.232-3.226 17.974l-.176.567-1.799-1.67.264-.91c.726-2.569 1.319-5.195 1.774-7.865l-2.861-.662-.029.121c.438.458.763.908.978 1.353.206.442.322.913.338 1.398.023.49-.04 1.031-.181 1.624-.149.629-.367 1.169-.653 1.618a3.76 3.76 0 0 1-.994 1.063c-.374.266-.779.443-1.191.531a2.87 2.87 0 0 1-1.231-.01 4.21 4.21 0 0 1-1.159-.468 4.78 4.78 0 0 1-1.037-.823c-.313-.332-.574-.708-.784-1.132a4.31 4.31 0 0 1-.41-1.389c-.063-.498-.032-1.031.093-1.595a6.57 6.57 0 0 1 .409-1.239c.167-.37.382-.719.646-1.056.27-.326.598-.666.999-1.016l-2.04-.346-.986-2.624 10.445 2.411c.243-1.735.429-3.489.554-5.258l-9.567.007-1.506-2.39 11.196.193c.047-1.09.071-2.185.071-3.285a75.08 75.08 0 0 0-.462-8.31zm-7.037 21.953l2.757 2.604c.086-.127.168-.269.24-.426a5.03 5.03 0 0 0 .191-.459c.052-.151.091-.287.119-.402.079-.366.089-.698.022-1.004s-.184-.559-.361-.765a1.22 1.22 0 0 0-.649-.401c-.4-.091-.81-.054-1.217.101s-.773.405-1.102.752m-84.405-83.962v2.314h-1.77l1.335-2.314zm1.824-5.5v2.26h-3.077v1.824a3.65 3.65 0 0 1-.358 1.552c-.231.495-.54.935-.926 1.316a4.46 4.46 0 0 1-1.279.903c-.463.217-.935.322-1.411.313-.395-.014-.744-.096-1.048-.245-.309-.15-.55-.354-.727-.609a1.54 1.54 0 0 1-.268-.862c.005-.44.087-.816.25-1.134a2.47 2.47 0 0 1 .64-.803c.263-.217.549-.395.862-.531.308-.135.617-.24.917-.313l.816-.154.545-.059-.191-1.198h-1.606c-.154-.005-.294-.045-.417-.132-.123-.081-.218-.19-.291-.326s-.109-.282-.109-.44c.005-.141.105-.35.296-.622s.43-.567.721-.889l.916-.927c.318-.294.613-.535.876-.725s.463-.286.595-.296c.308.01.531.078.658.205a.83.83 0 0 1 .236.463l.059.476.135.953zm-4.955 4.383l-.39.019c-.164.013-.349.045-.545.095a2.08 2.08 0 0 0-.562.236 1.26 1.26 0 0 0-.436.44c-.109.186-.163.422-.163.708a.82.82 0 0 0 .113.422c.077.132.199.236.363.322s.377.123.64.127c.236-.004.426-.073.567-.209s.245-.299.309-.508a2.7 2.7 0 0 0 .126-.64c.019-.222.023-.426.01-.607l-.032-.405" class="B"/><path d="M287.932 418.894v2.314h-7.025v-2.314h2.315v-8.086l2.532-2.423v10.509z" class="B"/><path d="M293.895 418.894v2.314h-7.025v-2.314h2.315v-8.086l2.532-2.423v10.509z" class="B"/><path d="M304.241 418.894v2.314h-11.407v-2.314h5.309l.054-.427.073-.572.036-.553c-.005-.154-.036-.327-.095-.509-.059-.176-.118-.326-.177-.444-.1.05-.259.109-.481.181s-.481.114-.771.118c-.327 0-.59-.058-.79-.176s-.345-.268-.436-.463-.135-.418-.135-.667c.004-.241.085-.504.24-.794s.368-.582.622-.889l.843-.903.908-.836.817-.69.934-.734 1.044-.74.971-.645.717-.458.281-.172 1.035 1.035c-.005 0-.086.041-.245.113l-.635.304-.849.435-.908.508-.794.518-.721.563-.689.585-.468.431a3.89 3.89 0 0 1 .585.35c.245.163.491.389.74.68s.463.644.639 1.076.273.948.295 1.542c.014.277.005.563-.027.858l-.135.808-.137.567z" class="B"/><path d="M315.022 418.894v2.314h-12.66v-2.314h7.95v-1.634h-4.002c-.504 0-.957-.113-1.357-.331s-.716-.535-.953-.944c-.231-.408-.354-.898-.358-1.475.004-.435.095-.875.263-1.32s.395-.885.663-1.311.562-.826.866-1.198l.876-.98.68-.663.3-.245.98.899c-.073 0-.209.063-.413.186s-.44.29-.708.512-.522.477-.771.772-.463.617-.627.97a2.61 2.61 0 0 0-.258 1.099c.005.362.082.676.241.93s.367.449.635.581a1.92 1.92 0 0 0 .894.204h3.049v-4.138l2.532-2.423v10.509z" class="B"/></g></g></svg>